<?xml version="1.0" encoding="utf-8"?>
<!-- Generator: Adobe Illustrator 27.2.0, SVG Export Plug-In . SVG Version: 6.00 Build 0)  -->
<svg version="1.1" id="Calque_1" xmlns="http://www.w3.org/2000/svg" xmlns:xlink="http://www.w3.org/1999/xlink" x="0px" y="0px"
	 viewBox="0 0 32 32" style="enable-background:new 0 0 32 32;" xml:space="preserve">
<style type="text/css">
	.st0{fill:#FFF5DC;}
</style>
<path d="M10.2,21.6c0.2,1.3,0.5,2.2,1.1,2.9c1,1.2,2.6,1.7,5,1.7c1.4,0,2.6-0.2,3.4-0.5c1.7-0.6,2.5-1.7,2.5-3.3
	c0-0.9-0.4-1.6-1.2-2.2c-0.8-0.5-2.1-0.9-3.9-1.3l-3-0.7c-3-0.7-5-1.4-6.2-2.2c-1.9-1.3-2.8-3.3-2.8-6.1c0-2.5,0.9-4.6,2.8-6.3
	c1.9-1.7,4.6-2.5,8.2-2.5c3,0,5.5,0.8,7.7,2.4c2.1,1.6,3.2,3.8,3.3,6.8h-5.6c-0.1-1.7-0.9-2.9-2.3-3.6c-0.9-0.5-2.1-0.7-3.5-0.7
	c-1.5,0-2.8,0.3-3.7,0.9c-0.9,0.6-1.4,1.5-1.4,2.6c0,1,0.5,1.8,1.4,2.2c0.6,0.3,1.8,0.7,3.7,1.2l4.9,1.2c2.2,0.5,3.8,1.2,4.9,2
	c1.7,1.3,2.5,3.2,2.5,5.7c0,2.6-1,4.7-3,6.4c-2,1.7-4.8,2.5-8.4,2.5c-3.7,0-6.6-0.8-8.7-2.5c-2.1-1.7-3.2-4-3.2-6.9H10.2z"/>
<path d="M16,7.8h1.2v4h-0.8V9.1c0-0.1,0-0.2,0-0.3c0-0.1,0-0.2,0-0.3l-0.7,3.3h-0.8l-0.7-3.3c0,0.1,0,0.2,0,0.3c0,0.1,0,0.2,0,0.3
	v2.7h-0.8v-4h1.2l0.7,3.1L16,7.8z"/>
<g>
	<path d="M19.3,8.5h-2.1v0.8h1.9v0.7h-1.9v1h2.2v0.7h-3v-4h2.9V8.5z"/>
</g>
<rect x="16.4" y="7.8" class="st0" width="0.8" height="4"/>
</svg>
